# xmcd
#
# Track frame offsets:
#	150
#	17000
#	39521
#	74282
#	98320
#	126882
#	149890
#	178298
#	204679
#	220078
#	237709
#	255798
#
# Disc length: 3690 seconds
#
# Revision: 1
# Processed by: cddbd v1.4PL0 Copyright (c) Steve Scherf et al.
# Submitted via: audiograbber 1.81.02
#
DISCID=b00e680c
DTITLE=Tony Lee King Band - Live in Maremis (2003)
DYEAR=2003
DGENRE=Blues
TTITLE0=Rock me baby
TTITLE1=Hoochie coochie man
TTITLE2=Have you ever loved a woman
TTITLE3=Boom boom
TTITLE4=All alone
TTITLE5=Crossroads
TTITLE6=Thrill is gone
TTITLE7=Don't
TTITLE8=Si tu ne veux pas
TTITLE9=Watch yourself
TTITLE10=Hard days
TTITLE11=Ramblin' on my mind
EXTD=
EXTT0=
EXTT1=
EXTT2=
EXTT3=
EXTT4=
EXTT5=
EXTT6=
EXTT7=
EXTT8=
EXTT9=
EXTT10=
EXTT11=
PLAYORDER=
